{"glyphs":{":":{"x_min":0,"x_max":211,"ha":211,"o":""},"$":{"x_min":0,"x_max":416,"ha":416,"o":"m 245 -4 q 241 -5 241 -9 l 241 -79 q 241 -89 231 -89 l 196 -89 q 186 -89 186 -79 l 187 -11 q 187 -7 183 -7 q 119 2 80 50 q 42 97 42 169 l 42 192 q 42 202 52 202 l 101 202 q 111 202 111 192 l 111 172 q 111 119 138 86 q 165 54 208 54 q 250 54 278 85 q 306 116 306 167 q 306 201 292 226 q 279 250 258 268 q 236 287 186 325 q 136 362 107 388 q 78 415 60 452 q 41 489 41 539 q 41 610 79 654 q 117 699 180 707 q 184 707 184 711 l 183 785 q 183 795 193 795 l 228 795 q 238 795 238 785 l 237 709 q 237 705 241 704 q 301 693 336 646 q 370 598 370 527 l 370 502 q 370 492 360 492 l 310 492 q 300 492 300 502 l 300 528 q 300 581 274 614 q 247 646 203 646 q 163 646 137 618 q 111 589 111 537 q 111 506 122 482 q 134 459 157 438 q 180 417 225 383 q 285 339 314 312 q 344 284 360 252 q 376 219 376 173 q 376 101 340 54 q 305 7 245 -4 z"},"?":{"x_min":0,"x_max":370,"ha":370,"o":"m 135 210 l 135 269 q 135 312 152 340 q 168 367 201 400 q 235 434 252 462 q 268 489 268 533 q 268 583 246 614 q 223 644 186 644 q 146 644 122 613 q 99 582 99 532 l 99 501 q 99 491 89 491 l 38 494 q 28 494 28 504 l 28 532 q 28 611 72 660 q 116 709 187 709 q 257 709 298 661 q 340 613 340 533 q 340 489 328 457 q 317 425 302 405 q 286 385 260 359 q 233 333 220 313 q 207 293 207 265 l 207 210 q 207 200 197 200 l 145 200 q 135 200 135 210 z m 116 58 q 116 83 132 98 q 147 114 172 114 q 196 114 212 98 q 228 83 228 58 q 228 34 212 18 q 196 2 172 2 q 147 2 132 18 q 116 34 116 58 z"},"<":{"x_min":0,"x_max":442,"ha":442,"o":"m 398 64 l 39 240 q 32 244 32 252 l 32 300 q 32 308 39 312 l 398 488 l 403 490 q 406 490 408 488 q 410 485 410 481 l 410 432 q 410 424 403 420 l 105 279 q 101 276 105 273 l 403 132 q 410 128 410 120 l 410 71 q 410 66 406 64 q 403 61 398 64 z"},"'":{"x_min":0,"x_max":119,"ha":119,"o":"m 30 503 l 22 688 q 22 698 32 698 l 85 698 q 95 698 95 688 l 87 503 q 87 493 77 493 l 40 493 q 30 493 30 503 z"},"=":{"x_min":0,"x_max":442,"ha":442,"o":""},"a":{"x_min":0,"x_max":413,"ha":413,"o":"m 363 347 l 363 10 q 363 0 353 0 l 302 0 q 292 0 292 10 l 292 40 q 292 42 290 42 q 289 43 287 41 q 250 -8 176 -8 q 121 -8 80 24 q 40 55 40 135 q 40 220 89 260 q 138 299 218 299 l 288 299 q 292 299 292 303 l 292 342 q 292 392 269 422 q 246 452 207 452 q 177 452 156 432 q 134 412 130 381 q 130 371 120 371 l 64 372 q 59 372 56 375 q 54 378 55 382 q 60 441 103 478 q 146 514 209 514 q 279 514 321 468 q 363 423 363 347 z m 292 154 l 292 238 q 292 242 288 242 l 217 242 q 169 242 141 216 q 113 191 113 141 q 113 97 134 76 q 156 54 191 54 q 232 54 262 80 q 292 107 292 154 z"},"L":{"x_min":0,"x_max":396,"ha":396,"o":"m 72 10 l 72 690 q 72 700 82 700 l 133 700 q 143 700 143 690 l 143 66 q 143 62 147 62 l 376 62 q 386 62 386 52 l 386 10 q 386 0 376 0 l 82 0 q 72 0 72 10 z"},"3":{"x_min":0,"x_max":408,"ha":408,"o":"m 356 212 q 356 159 345 115 q 317 -8 197 -8 q 134 -8 94 27 q 53 62 43 124 q 37 159 37 201 q 37 211 47 211 l 98 211 q 108 211 108 201 q 108 165 114 136 q 131 54 197 54 q 228 54 249 73 q 270 92 279 128 q 287 170 287 218 q 287 281 275 323 q 265 355 245 372 q 225 388 197 388 q 188 388 174 382 q 165 377 160 383 l 134 410 q 129 417 133 424 l 266 633 q 267 634 266 636 q 265 638 263 638 l 52 638 q 42 638 42 648 l 42 690 q 42 700 52 700 l 344 700 q 354 700 354 690 l 354 645 q 354 640 350 632 l 226 438 q 225 436 226 434 q 226 433 228 433 q 268 429 298 400 q 327 372 340 326 q 356 275 356 212 z"},";":{"x_min":0,"x_max":193,"ha":193,"o":"m 42 407 q 42 431 58 448 q 75 465 97 465 q 118 465 135 448 q 152 431 152 407 q 152 382 136 364 q 120 347 97 347 q 73 347 58 364 q 42 381 42 407 z m 45 -65 l 66 142 q 67 151 77 151 l 121 151 q 126 151 128 148 q 131 145 130 140 l 96 -66 q 95 -75 85 -75 l 55 -75 q 50 -75 47 -72 q 44 -69 45 -65 z"},"J":{"x_min":0,"x_max":426,"ha":426,"o":"m 22 161 l 22 245 q 22 255 32 255 l 83 255 q 93 255 93 245 l 93 160 q 93 113 119 84 q 145 54 188 54 q 230 54 256 84 q 283 113 283 160 l 283 690 q 283 700 293 700 l 344 700 q 354 700 354 690 l 354 161 q 354 85 308 38 q 262 -8 188 -8 q 114 -8 68 38 q 22 85 22 161 z"},"V":{"x_min":0,"x_max":439,"ha":439,"o":"m 180 9 l 35 689 l 35 691 q 35 700 44 700 l 100 700 q 110 700 111 691 l 219 132 q 220 130 221 130 q 222 130 223 132 l 330 691 q 332 700 341 700 l 395 700 q 406 700 404 689 l 259 9 q 258 0 248 0 l 191 0 q 182 0 180 9 z"},"\"":{"x_min":0,"x_max":235,"ha":235,"o":"m 30 498 l 22 684 q 22 694 32 694 l 82 694 q 92 694 92 684 l 84 498 q 84 488 74 488 l 40 488 q 30 488 30 498 z m 148 498 l 141 684 q 141 694 151 694 l 201 694 q 211 694 211 684 l 203 498 q 203 488 193 488 l 158 488 q 148 488 148 498 z"},"7":{"x_min":0,"x_max":366,"ha":366,"o":"m 102 11 l 273 634 q 274 635 272 636 q 271 638 269 638 l 86 638 q 82 638 82 634 l 82 593 q 82 583 72 583 l 33 583 q 23 583 23 593 l 23 690 q 23 700 33 700 l 339 700 q 349 700 349 690 l 349 644 q 349 642 347 632 l 177 9 q 175 0 166 0 l 111 0 q 106 0 104 3 q 101 6 102 11 z"},"S":{"x_min":0,"x_max":416,"ha":416,"o":"m 42 169 l 42 192 q 42 202 52 202 l 101 202 q 111 202 111 192 l 111 172 q 111 119 138 86 q 165 54 208 54 q 250 54 278 85 q 306 116 306 167 q 306 201 292 226 q 279 250 258 268 q 236 287 186 325 q 136 362 107 388 q 78 415 60 452 q 41 489 41 539 q 41 617 86 662 q 131 708 203 708 q 279 708 324 658 q 370 609 370 527 l 370 502 q 370 492 360 492 l 310 492 q 300 492 300 502 l 300 528 q 300 581 274 614 q 247 646 203 646 q 163 646 137 618 q 111 589 111 537 q 111 506 122 482 q 134 459 157 438 q 180 417 225 383 q 285 339 314 312 q 344 284 360 252 q 376 219 376 173 q 376 91 329 42 q 282 -8 208 -8 q 134 -8 88 41 q 42 90 42 169 z"},"}":{"x_min":0,"x_max":273,"ha":273,"o":"m 36 -121 q 26 -121 26 -111 l 26 -69 q 26 -59 36 -59 l 62 -59 q 116 -59 116 16 l 116 215 q 116 260 128 287 q 140 314 164 328 q 166 329 166 330 q 166 331 164 332 q 140 345 128 372 q 116 399 116 444 l 116 638 q 116 712 62 712 l 36 712 q 26 712 26 722 l 26 764 q 26 774 36 774 l 87 774 q 138 774 162 746 q 187 719 187 661 l 187 449 q 187 408 200 386 q 212 365 238 360 q 247 359 247 350 l 247 310 q 247 302 238 300 q 212 295 200 273 q 187 251 187 210 l 187 -7 q 187 -65 162 -93 q 138 -121 87 -121 z"},"Z":{"x_min":0,"x_max":395,"ha":395,"o":"m 33 10 l 33 56 q 33 61 36 68 l 279 633 q 280 635 279 636 q 278 638 276 638 l 43 638 q 33 638 33 648 l 33 690 q 33 700 43 700 l 346 700 q 356 700 356 690 l 356 644 q 356 640 353 632 l 111 67 q 110 65 111 64 q 112 62 114 62 l 346 62 q 356 62 356 52 l 356 10 q 356 0 346 0 l 43 0 q 33 0 33 10 z"},"x":{"x_min":0,"x_max":376,"ha":376,"o":"m 23 12 l 145 250 q 147 253 145 256 l 23 494 q 22 496 22 499 q 22 506 30 506 l 86 506 q 95 506 98 499 l 185 321 q 186 319 188 319 q 190 319 191 321 l 278 499 q 281 506 290 506 l 346 506 q 351 506 353 502 q 355 499 353 494 l 231 256 q 230 253 231 250 l 353 12 q 354 10 354 7 q 354 0 346 0 l 290 0 q 281 0 278 7 l 191 186 q 190 188 188 188 q 186 188 185 186 l 98 7 q 95 0 86 0 l 30 0 q 25 0 23 4 q 21 7 23 12 z"},")":{"x_min":0,"x_max":222,"ha":222,"o":"m 136 756 q 175 681 200 569 q 224 457 224 334 q 224 207 199 92 q 174 -22 134 -97 q 130 -104 122 -104 l 74 -104 q 69 -104 66 -100 q 64 -97 66 -93 q 100 -13 122 100 q 144 212 144 332 q 144 451 122 562 q 100 672 66 752 q 65 753 65 756 q 65 759 68 761 q 70 763 74 763 l 124 763 q 132 763 136 756 z"},"&":{"x_min":0,"x_max":542,"ha":542,"o":"m 494 6 q 494 4 492 2 q 490 0 486 0 l 432 0 q 424 0 420 6 l 379 66 q 378 68 376 68 q 374 68 373 67 q 336 27 296 9 q 257 -9 208 -9 q 131 -9 86 34 q 41 77 41 156 q 41 223 73 272 q 105 322 161 369 q 164 370 162 374 q 126 428 109 458 q 92 487 86 508 q 81 528 81 554 q 81 624 121 666 q 161 708 226 708 q 291 708 332 666 q 374 623 374 555 q 374 494 343 450 q 312 407 254 358 q 251 357 253 353 q 293 297 312 268 l 374 180 q 375 179 377 179 q 379 179 380 180 q 394 201 428 261 q 430 265 434 266 q 438 267 442 265 l 480 243 q 488 238 483 229 q 451 170 418 124 q 417 121 418 118 l 492 12 q 494 10 494 6 z m 152 552 q 152 524 162 499 q 173 474 211 416 q 213 412 216 415 q 258 451 280 483 q 303 515 303 555 q 303 595 282 619 q 261 643 228 643 q 194 643 173 618 q 152 594 152 552 z m 336 120 q 338 123 336 126 l 288 195 l 205 312 q 203 315 200 312 q 157 275 134 239 q 112 203 112 158 q 112 111 139 82 q 166 53 215 53 q 248 53 277 70 q 306 86 336 120 z"},"_":{"x_min":0,"x_max":376,"ha":376,"o":"m 22 10 l 22 47 q 22 57 32 57 l 344 57 q 354 57 354 47 l 354 10 q 354 0 344 0 l 32 0 q 22 0 22 10 z"},"v":{"x_min":0,"x_max":379,"ha":379,"o":"m 149 9 l 25 495 l 24 499 q 24 506 33 506 l 91 506 q 100 506 102 497 l 188 118 q 189 115 190 115 q 191 115 192 118 l 277 497 q 279 506 288 506 l 346 505 q 351 505 354 502 q 356 499 354 494 l 231 9 q 230 0 220 0 l 160 0 q 151 0 149 9 z"},"O":{"x_min":0,"x_max":456,"ha":456,"o":"m 55 167 l 55 533 q 55 612 102 660 q 150 708 227 708 q 305 708 353 660 q 401 612 401 533 l 401 167 q 401 89 353 40 q 305 -8 227 -8 q 150 -8 102 40 q 55 88 55 167 z m 330 163 l 330 536 q 330 585 302 616 q 273 646 227 646 q 182 646 154 616 q 126 585 126 536 l 126 163 q 126 115 154 84 q 182 54 227 54 q 273 54 302 84 q 330 115 330 163 z"},"(":{"x_min":0,"x_max":222,"ha":222,"o":"m 85 -97 q 46 -21 22 90 q -3 202 -3 325 q -3 451 22 565 q 47 679 87 756 q 91 763 99 763 l 148 763 q 153 763 156 760 q 158 756 156 752 q 122 673 100 560 q 78 447 78 326 q 78 207 100 96 q 122 -14 156 -92 l 157 -96 q 157 -104 148 -104 l 97 -104 q 89 -104 85 -97 z"},"C":{"x_min":0,"x_max":446,"ha":446,"o":"m 55 165 l 55 536 q 55 614 102 661 q 148 708 225 708 q 303 708 350 662 q 396 615 396 536 l 396 519 q 396 509 386 509 l 334 506 q 324 506 324 516 l 324 541 q 324 588 297 617 q 270 646 225 646 q 181 646 154 617 q 126 588 126 541 l 126 159 q 126 112 154 83 q 181 54 225 54 q 270 54 297 83 q 324 112 324 159 l 324 184 q 324 194 334 194 l 386 191 q 396 191 396 181 l 396 165 q 396 86 349 39 q 302 -8 225 -8 q 148 -8 102 39 q 55 86 55 165 z"},"W":{"x_min":0,"x_max":623,"ha":623,"o":"m 161 9 l 29 689 l 29 691 q 29 700 38 700 l 91 700 q 101 700 102 691 l 196 165 q 197 163 198 163 q 199 163 200 165 l 281 691 q 283 700 291 700 l 337 700 q 346 700 347 691 l 432 165 q 433 163 434 163 q 435 163 436 165 l 522 691 q 524 700 532 700 l 585 700 q 590 700 592 697 q 595 694 594 689 l 470 9 q 469 0 459 0 l 410 0 q 402 0 400 9 l 316 537 q 315 539 314 539 q 312 539 312 537 l 230 9 q 229 0 220 0 l 172 0 q 163 0 161 9 z"},"A":{"x_min":0,"x_max":410,"ha":410,"o":"m 325 9 l 300 133 q 300 135 298 136 q 297 137 295 137 l 114 137 q 112 137 110 136 q 109 135 109 133 l 84 9 q 83 0 73 0 l 22 0 q 17 0 14 3 q 12 6 13 11 l 163 691 q 165 700 174 700 l 234 700 q 244 700 245 691 l 397 11 l 397 9 q 397 0 388 0 l 336 0 q 327 0 325 9 z m 125 195 l 283 195 q 286 195 286 199 l 206 592 q 205 595 204 595 q 203 595 202 592 l 122 199 q 122 195 125 195 z"},"f":{"x_min":0,"x_max":277,"ha":277,"o":"m 152 541 l 152 510 q 152 506 156 506 l 233 506 q 243 506 243 496 l 243 463 q 243 453 233 453 l 156 453 q 152 453 152 449 l 152 10 q 152 0 142 0 l 92 0 q 82 0 82 10 l 82 449 q 82 453 78 453 l 38 453 q 28 453 28 463 l 28 496 q 28 506 38 506 l 78 506 q 82 506 82 510 l 82 542 q 82 629 114 668 q 146 707 221 707 l 235 707 q 245 707 245 697 l 244 656 q 244 646 234 646 l 222 646 q 184 646 168 620 q 152 595 152 541 z"},"Q":{"x_min":0,"x_max":443,"ha":443,"o":"m 388 530 l 388 170 q 388 101 354 54 q 319 8 261 -4 q 257 -5 257 -9 l 257 -105 q 257 -115 247 -115 l 196 -115 q 186 -115 186 -105 l 186 -9 q 186 -5 182 -4 q 124 9 90 56 q 55 102 55 170 l 55 530 q 55 609 102 658 q 148 708 222 708 q 296 708 342 659 q 388 610 388 530 z m 317 537 q 317 585 291 616 q 265 646 222 646 q 179 646 152 616 q 126 585 126 537 l 126 163 q 126 115 152 84 q 179 54 222 54 q 265 54 291 84 q 317 115 317 163 z"},"w":{"x_min":0,"x_max":554,"ha":554,"o":"m 130 9 l 24 495 l 24 497 q 24 506 33 506 l 82 506 q 92 506 93 497 l 165 115 q 166 113 167 113 q 168 113 169 115 l 243 497 q 245 506 254 506 l 299 506 q 309 506 310 497 l 384 115 q 385 113 386 113 q 387 113 388 115 l 462 497 q 464 506 473 506 l 521 505 q 532 505 530 494 l 424 9 q 423 0 413 0 l 362 0 q 353 0 351 9 l 277 375 q 276 378 275 378 q 274 378 273 375 l 202 9 q 201 0 191 0 l 141 0 q 132 0 130 9 z"},"-":{"x_min":0,"x_max":313,"ha":313,"o":"m 32 290 l 32 332 q 32 342 42 342 l 271 342 q 281 342 281 332 l 281 290 q 281 280 271 280 l 42 280 q 32 280 32 290 z"},"E":{"x_min":0,"x_max":429,"ha":429,"o":"m 379 638 l 147 638 q 143 638 143 634 l 143 386 q 143 382 147 382 l 293 382 q 303 382 303 372 l 303 329 q 303 319 293 319 l 147 319 q 143 319 143 315 l 143 66 q 143 62 147 62 l 379 62 q 389 62 389 52 l 389 10 q 389 0 379 0 l 82 0 q 72 0 72 10 l 72 690 q 72 700 82 700 l 379 700 q 389 700 389 690 l 389 648 q 389 638 379 638 z"},"s":{"x_min":0,"x_max":374,"ha":374,"o":"m 41 125 l 41 132 q 41 142 51 142 l 99 142 q 109 142 109 132 l 109 126 q 109 94 132 72 q 156 50 194 50 q 230 50 252 72 q 274 94 274 128 q 274 154 260 172 q 246 189 228 199 q 209 209 172 225 q 133 241 108 256 q 82 272 64 300 q 45 329 45 373 q 45 437 84 474 q 124 511 191 511 q 259 511 299 473 q 339 435 339 372 l 339 369 q 339 359 329 359 l 283 359 q 273 359 273 369 l 273 375 q 273 409 250 431 q 228 453 192 453 q 156 453 134 430 q 113 408 113 375 q 113 351 126 334 q 139 318 158 308 q 177 297 211 282 q 252 264 278 248 q 305 232 325 203 q 345 174 345 131 q 345 69 304 32 q 263 -5 193 -5 q 124 -5 82 30 q 41 66 41 125 z"},">":{"x_min":0,"x_max":442,"ha":442,"o":"m 39 62 q 36 62 34 64 q 32 67 32 71 l 32 120 q 32 128 39 132 l 337 273 q 341 276 337 279 l 39 420 q 32 424 32 432 l 32 481 q 32 486 36 488 q 39 491 44 488 l 403 312 q 410 308 410 300 l 410 252 q 410 244 403 240 l 44 64 z"},"l":{"x_min":0,"x_max":181,"ha":181,"o":"m 55 10 l 55 690 q 55 700 65 700 l 116 700 q 126 700 126 690 l 126 10 q 126 0 116 0 l 65 0 q 55 0 55 10 z"},"8":{"x_min":0,"x_max":422,"ha":422,"o":"m 295 368 q 332 349 348 311 q 370 262 370 195 q 370 140 356 100 q 339 49 301 20 q 263 -8 210 -8 q 159 -8 122 20 q 84 48 66 99 q 52 143 52 196 q 52 260 71 304 q 88 346 127 368 q 131 371 127 374 q 94 391 74 428 q 52 470 52 530 q 52 591 74 632 q 93 669 128 690 q 163 710 210 710 q 257 710 292 690 q 327 671 346 634 q 370 592 370 529 q 370 469 349 430 q 329 393 295 374 q 290 371 295 368 z m 122 524 q 122 479 138 449 q 160 400 210 400 q 237 400 256 414 q 276 428 286 453 q 300 483 300 525 q 300 573 283 601 q 260 648 210 648 q 159 648 137 598 q 122 568 122 524 z m 300 199 q 300 251 286 285 q 265 343 210 343 q 183 343 164 327 q 144 311 134 281 q 122 248 122 199 q 122 158 131 126 q 140 92 160 73 q 181 54 210 54 q 240 54 262 74 q 283 93 292 129 q 300 161 300 199 z"},"\\":{"x_min":0,"x_max":334,"ha":334,"o":"m 310 8 q 310 0 300 0 l 250 0 q 241 0 239 9 l 58 689 l 57 692 q 57 700 67 700 l 117 700 q 126 700 128 691 l 309 11 z"},"e":{"x_min":0,"x_max":407,"ha":407,"o":"m 353 226 l 125 226 q 121 226 121 222 l 121 149 q 121 107 144 80 q 168 54 206 54 q 238 54 260 74 q 283 93 290 124 q 293 133 301 133 l 351 131 q 355 131 358 128 q 361 125 360 120 q 352 61 312 26 q 271 -8 206 -8 q 135 -8 92 34 q 50 76 50 145 l 50 361 q 50 429 92 472 q 135 514 206 514 q 278 514 320 472 q 363 429 363 361 l 363 236 q 363 226 353 226 z m 121 356 l 121 289 q 121 285 125 285 l 289 285 q 293 285 293 289 l 293 356 q 293 399 269 426 q 245 452 206 452 q 168 452 144 426 q 121 399 121 356 z"},"b":{"x_min":0,"x_max":423,"ha":423,"o":"m 373 361 l 373 145 q 373 77 335 34 q 297 -8 233 -8 q 206 -8 181 2 q 156 13 137 34 q 135 36 134 35 q 132 34 132 32 l 132 10 q 132 0 122 0 l 71 0 q 61 0 61 10 l 61 690 q 61 700 71 700 l 122 700 q 132 700 132 690 l 132 474 q 132 472 134 471 q 136 470 138 473 q 156 493 181 504 q 206 514 233 514 q 296 514 334 472 q 373 431 373 361 z m 215 452 q 178 452 155 426 q 132 399 132 356 l 132 149 q 132 107 155 80 q 178 54 215 54 q 254 54 278 80 q 302 107 302 149 l 302 356 q 302 399 278 426 q 254 452 215 452 z"},"%":{"x_min":0,"x_max":781,"ha":781,"o":"m 72 567 q 72 606 90 638 q 109 671 142 690 q 174 709 212 709 q 250 709 282 690 q 314 671 332 638 q 351 606 351 567 q 351 528 332 496 q 314 463 282 444 q 250 425 212 425 q 174 425 142 444 q 109 463 90 496 q 72 528 72 567 z m 180 12 l 547 693 q 550 700 559 700 l 591 700 q 597 700 600 696 q 602 693 599 688 l 232 7 q 229 0 220 0 l 188 0 q 182 0 180 4 q 177 7 180 12 z m 307 567 q 307 609 280 638 q 252 667 212 667 q 172 667 144 638 q 116 609 116 567 q 116 525 144 496 q 172 467 212 467 q 252 467 280 496 q 307 526 307 567 z m 431 134 q 431 172 450 204 q 468 237 500 256 q 533 275 571 275 q 609 275 641 256 q 673 237 692 204 q 710 172 710 134 q 710 95 692 62 q 673 29 641 10 q 609 -9 571 -9 q 533 -9 500 10 q 468 29 450 62 q 431 95 431 134 z m 666 134 q 666 175 638 204 q 610 233 571 233 q 531 233 503 204 q 475 175 475 134 q 475 91 502 62 q 530 33 571 33 q 611 33 638 62 q 666 92 666 134 z"},"m":{"x_min":0,"x_max":648,"ha":648,"o":"m 592 347 l 592 10 q 592 0 582 0 l 532 0 q 522 0 522 10 l 522 341 q 522 392 500 422 q 479 451 444 451 q 406 451 384 422 q 362 393 362 343 l 362 10 q 362 0 352 0 l 301 0 q 291 0 291 10 l 291 341 q 291 392 270 422 q 248 451 214 451 q 176 451 154 422 q 131 393 131 343 l 131 10 q 131 0 121 0 l 71 0 q 61 0 61 10 l 61 496 q 61 506 71 506 l 121 506 q 131 506 131 496 l 131 465 q 131 463 132 462 q 134 462 136 464 q 155 489 181 501 q 207 513 236 513 q 274 513 302 494 q 330 476 345 442 q 346 440 348 440 q 350 440 351 443 q 369 479 400 496 q 431 513 466 513 q 526 513 559 469 q 592 425 592 347 z"},"#":{"x_min":0,"x_max":589,"ha":589,"o":"m 524 429 l 461 429 q 456 429 456 425 l 433 266 q 433 262 436 262 l 491 262 q 501 262 501 252 l 501 210 q 501 200 491 200 l 426 200 q 421 200 421 196 l 396 25 q 395 16 386 16 l 335 18 q 331 18 328 21 q 325 24 326 29 l 350 196 q 350 200 347 200 l 201 200 q 196 200 196 196 l 171 25 q 170 16 161 16 l 110 18 q 106 18 103 21 q 100 24 101 29 l 125 196 q 125 200 122 200 l 65 200 q 55 200 55 210 l 55 252 q 55 262 65 262 l 131 262 q 136 262 136 266 l 159 425 q 159 429 156 429 l 98 429 q 88 429 88 439 l 88 482 q 88 492 98 492 l 166 492 q 171 492 171 496 l 196 667 q 197 676 206 676 l 257 674 q 261 674 264 671 q 267 668 266 663 l 242 496 q 242 492 245 492 l 391 492 q 396 492 396 496 l 421 667 q 422 676 431 676 l 482 674 q 486 674 489 671 q 492 668 491 663 l 467 496 q 467 492 470 492 l 524 492 q 534 492 534 482 l 534 439 q 534 429 524 429 z m 361 266 l 384 425 q 384 429 381 429 l 236 429 q 231 429 231 425 l 208 266 q 208 262 211 262 l 356 262 q 361 262 361 266 z"},",":{"x_min":0,"x_max":177,"ha":177,"o":"m 39 -68 l 70 146 q 71 155 80 155 l 125 155 q 136 155 134 144 l 89 -70 q 88 -79 78 -79 l 48 -79 q 44 -79 41 -76 q 38 -73 39 -68 z"},"n":{"x_min":0,"x_max":424,"ha":424,"o":"m 369 354 l 369 10 q 369 0 359 0 l 308 0 q 298 0 298 10 l 298 348 q 298 397 276 424 q 255 451 217 451 q 177 451 154 422 q 132 393 132 343 l 132 10 q 132 0 122 0 l 71 0 q 61 0 61 10 l 61 496 q 61 506 71 506 l 122 506 q 132 506 132 496 l 132 464 q 132 462 134 461 q 136 460 137 463 q 155 488 182 500 q 210 513 241 513 q 302 513 336 471 q 369 429 369 354 z"},"h":{"x_min":0,"x_max":424,"ha":424,"o":"m 369 354 l 369 10 q 369 0 359 0 l 308 0 q 298 0 298 10 l 298 348 q 298 397 276 424 q 255 451 217 451 q 177 451 154 422 q 132 393 132 343 l 132 10 q 132 0 122 0 l 71 0 q 61 0 61 10 l 61 690 q 61 700 71 700 l 122 700 q 132 700 132 690 l 132 464 q 132 462 134 461 q 136 460 137 463 q 155 488 182 500 q 210 513 241 513 q 302 513 336 471 q 369 429 369 354 z"},"z":{"x_min":0,"x_max":361,"ha":361,"o":"m 33 10 l 33 58 q 33 65 36 71 l 241 436 q 242 438 242 440 q 241 441 239 441 l 47 441 q 37 441 37 451 l 37 496 q 37 506 47 506 l 317 506 q 327 506 327 496 l 327 448 q 327 441 324 435 l 117 70 q 116 68 117 66 q 118 65 120 65 l 319 65 q 329 65 329 55 l 329 10 q 329 0 319 0 l 43 0 q 33 0 33 10 z"},"B":{"x_min":0,"x_max":449,"ha":449,"o":"m 235 0 l 82 0 q 72 0 72 10 l 72 690 q 72 700 82 700 l 226 700 q 312 700 361 652 q 410 605 410 517 q 410 405 327 364 q 325 363 325 362 q 325 361 326 360 q 414 309 414 190 q 415 100 366 50 q 317 0 235 0 z m 143 634 l 143 393 q 143 389 147 389 l 226 389 q 280 389 310 421 q 340 453 340 511 q 340 571 310 604 q 280 638 226 638 l 147 638 q 143 638 143 634 z m 343 198 q 343 263 313 299 q 283 335 230 335 l 147 335 q 143 335 143 331 l 143 67 q 143 63 147 63 l 230 63 q 283 63 313 98 q 343 134 343 198 z"},"K":{"x_min":0,"x_max":452,"ha":452,"o":"m 72 10 l 72 690 q 72 700 82 700 l 133 700 q 143 700 143 690 l 143 366 q 143 363 145 362 q 147 361 148 364 l 341 693 q 346 700 353 700 l 409 700 q 415 700 417 696 q 419 693 416 688 l 260 417 q 258 413 259 411 l 431 12 l 432 8 q 432 0 423 0 l 366 0 q 358 0 355 8 l 211 348 q 210 352 206 348 l 144 252 q 143 251 143 247 l 143 10 q 143 0 133 0 l 82 0 q 72 0 72 10 z"},"R":{"x_min":0,"x_max":443,"ha":443,"o":"m 340 8 l 238 317 q 237 320 234 320 l 147 320 q 143 320 143 316 l 143 10 q 143 0 133 0 l 82 0 q 72 0 72 10 l 72 690 q 72 700 82 700 l 247 700 q 320 700 365 646 q 410 593 410 507 q 410 442 382 395 q 354 348 306 329 q 302 328 303 324 l 412 11 l 413 7 q 413 0 404 0 l 352 0 q 343 0 340 8 z m 143 634 l 143 381 q 143 377 147 377 l 237 377 q 283 377 311 412 q 339 448 339 507 q 339 566 311 602 q 283 638 237 638 l 147 638 q 143 638 143 634 z"},"T":{"x_min":0,"x_max":423,"ha":423,"o":"m 389 690 l 389 648 q 389 638 379 638 l 247 638 q 243 638 243 634 l 243 10 q 243 0 233 0 l 182 0 q 172 0 172 10 l 172 634 q 172 638 168 638 l 44 638 q 34 638 34 648 l 34 690 q 34 700 44 700 l 379 700 q 389 700 389 690 z"},"P":{"x_min":0,"x_max":442,"ha":442,"o":"m 409 507 q 409 421 365 368 q 321 316 249 316 l 146 316 q 142 316 142 312 l 142 10 q 142 0 132 0 l 81 0 q 71 0 71 10 l 71 691 q 71 701 81 701 l 246 701 q 319 701 364 648 q 409 594 409 507 z m 338 506 q 338 566 310 602 q 282 639 237 639 l 146 639 q 142 639 142 635 l 142 378 q 142 374 146 374 l 237 374 q 282 374 310 410 q 338 446 338 506 z"},"|":{"x_min":0,"x_max":144,"ha":144,"o":"m 36 -70 l 36 750 q 36 760 46 760 l 97 760 q 107 760 107 750 l 107 -70 q 107 -80 97 -80 l 46 -80 q 36 -80 36 -70 z"},"t":{"x_min":0,"x_max":267,"ha":267,"o":"m 229 453 l 153 453 q 149 453 149 449 l 149 143 q 149 97 165 80 q 181 62 214 63 l 224 63 q 234 63 234 53 l 234 10 q 234 0 224 0 l 199 0 q 140 0 110 26 q 79 51 79 122 l 79 449 q 79 453 75 453 l 36 453 q 26 453 26 463 l 26 496 q 26 506 36 506 l 75 506 q 79 506 79 510 l 79 622 q 79 632 89 632 l 139 632 q 149 632 149 622 l 149 510 q 149 506 153 506 l 229 506 q 239 506 239 496 l 239 463 q 239 453 229 453 z"},"M":{"x_min":0,"x_max":521,"ha":521,"o":"m 389 700 l 441 700 q 451 700 451 690 l 451 10 q 451 0 441 0 l 390 0 q 380 0 380 10 l 380 546 q 380 549 378 549 q 377 549 375 547 l 271 331 q 268 324 261 324 q 253 324 250 331 l 146 546 q 144 548 142 548 q 141 548 141 545 l 141 10 q 141 0 131 0 l 80 0 q 70 0 70 10 l 70 690 q 70 700 80 700 l 132 700 q 141 700 144 693 l 258 462 q 259 460 261 460 q 263 460 264 462 l 377 693 q 380 700 389 700 z"},"g":{"x_min":0,"x_max":413,"ha":413,"o":"m 301 506 l 352 506 q 362 506 362 496 l 362 10 q 362 -97 312 -152 q 263 -208 147 -203 q 137 -202 137 -192 l 137 -149 q 137 -139 147 -139 q 227 -141 259 -102 q 291 -64 291 16 l 291 46 q 291 48 290 49 q 288 50 286 48 q 269 23 242 10 q 216 -3 186 -3 q 123 -3 86 39 q 50 81 50 150 l 50 361 q 50 431 86 472 q 123 514 186 514 q 216 514 242 502 q 269 489 286 464 q 288 461 290 462 q 291 462 291 465 l 291 496 q 291 506 301 506 z m 291 154 l 291 356 q 291 399 268 426 q 244 452 207 452 q 169 452 145 426 q 121 399 121 356 l 121 154 q 121 112 145 86 q 169 59 207 59 q 244 59 268 86 q 291 112 291 154 z"},"j":{"x_min":0,"x_max":200,"ha":200,"o":"m 40 654 q 40 679 56 694 q 72 710 96 710 q 121 710 136 694 q 152 679 152 654 q 152 630 136 614 q 120 598 96 598 q 72 598 56 614 q 40 630 40 654 z m -30 -198 l -30 -156 q -30 -146 -20 -146 q 61 -143 61 -44 l 61 496 q 61 506 71 506 l 122 506 q 132 506 132 496 l 132 -44 q 132 -126 100 -167 q 68 -208 -20 -208 q -30 -208 -30 -198 z"},"i":{"x_min":0,"x_max":208,"ha":208,"o":"m 48 654 q 48 679 64 694 q 79 710 104 710 q 128 710 144 694 q 159 679 159 654 q 159 630 144 614 q 128 598 104 598 q 79 598 64 614 q 48 630 48 654 z m 69 10 l 69 496 q 69 506 79 506 l 130 506 q 140 506 140 496 l 140 10 q 140 0 130 0 l 79 0 q 69 0 69 10 z"},"y":{"x_min":0,"x_max":368,"ha":368,"o":"m 38 -190 l 38 -150 q 38 -140 48 -140 q 79 -139 96 -128 q 114 -117 125 -89 q 136 -61 147 -3 q 148 -1 148 0 q 147 2 147 3 l 20 495 l 19 498 q 19 506 29 506 l 83 506 q 93 506 94 497 l 182 104 q 183 101 184 101 q 185 101 186 104 l 273 497 q 275 506 284 506 l 340 505 q 345 505 348 502 q 350 499 348 494 l 209 -44 q 191 -111 174 -143 q 156 -175 128 -188 q 100 -200 49 -200 l 44 -200 q 42 -200 40 -197 q 38 -194 38 -190 z"},"@":{"x_min":0,"x_max":761,"ha":761,"o":"m 711 335 q 711 309 708 282 q 695 188 648 136 q 602 83 532 83 q 466 83 437 128 q 434 131 431 128 q 417 104 394 92 q 372 81 347 81 q 302 81 274 108 q 247 134 247 179 q 247 195 256 267 q 260 303 266 338 q 273 388 302 417 q 331 446 377 446 q 394 446 411 439 q 428 432 440 418 q 442 416 444 417 q 445 418 445 420 l 446 432 q 447 441 456 441 l 488 441 q 493 441 496 438 q 499 434 498 430 l 472 226 q 471 220 471 208 q 471 173 490 152 q 508 131 540 131 q 584 131 614 171 q 644 211 653 282 q 656 308 656 330 q 656 402 626 456 q 597 510 542 539 q 488 568 416 568 q 339 568 272 529 q 205 490 160 420 q 116 349 105 260 q 102 235 102 212 q 102 136 133 80 q 164 23 216 -7 q 269 -37 334 -37 q 382 -37 423 -24 q 464 -10 490 9 q 492 11 496 11 q 501 11 504 7 l 520 -16 q 522 -20 522 -22 q 522 -27 517 -30 q 484 -55 434 -70 q 384 -86 325 -86 q 245 -86 182 -50 q 119 -15 84 52 q 49 118 49 207 q 49 225 53 263 q 66 366 118 446 q 171 527 251 572 q 331 616 422 616 q 508 616 574 582 q 639 547 675 483 q 711 419 711 335 z m 420 218 l 428 283 l 434 336 q 435 340 435 347 q 435 371 421 386 q 407 401 384 401 q 358 401 340 382 q 321 364 317 336 q 315 315 313 306 q 309 282 308 263 l 299 192 q 297 163 311 145 q 325 127 350 127 q 375 127 393 145 q 411 163 416 192 z"},".":{"x_min":0,"x_max":190,"ha":190,"o":""},"p":{"x_min":0,"x_max":428,"ha":428,"o":"m 378 361 l 378 145 q 378 75 340 34 q 302 -8 239 -8 q 211 -8 186 2 q 161 13 142 35 q 140 37 138 36 q 137 35 137 33 l 137 -184 q 137 -194 127 -194 l 76 -194 q 66 -194 66 -184 l 66 496 q 66 506 76 506 l 127 506 q 137 506 137 496 l 137 473 q 137 471 139 470 q 141 470 143 472 q 161 493 186 504 q 212 514 239 514 q 302 514 340 472 q 378 429 378 361 z m 221 452 q 184 452 160 426 q 137 399 137 356 l 137 150 q 137 107 160 80 q 184 54 221 54 q 259 54 284 80 q 308 107 308 150 l 308 356 q 308 399 284 426 q 259 452 221 452 z"},"X":{"x_min":0,"x_max":434,"ha":434,"o":"m 38 12 l 178 347 q 180 350 178 353 l 38 688 l 37 692 q 37 700 46 700 l 99 700 q 107 700 110 692 l 214 426 q 215 423 217 423 q 219 423 220 426 l 324 692 q 327 700 335 700 l 388 700 q 393 700 396 696 q 398 693 396 688 l 255 352 q 254 349 255 346 l 396 12 l 397 8 q 397 0 388 0 l 335 0 q 327 0 324 8 l 220 273 q 219 276 217 276 q 215 276 214 273 l 110 8 q 107 0 99 0 l 46 0 q 41 0 38 4 q 36 7 38 12 z"},"*":{"x_min":0,"x_max":361,"ha":361,"o":"m 157 404 l 158 524 q 158 530 153 527 l 53 466 l 48 464 q 43 464 39 470 l 27 492 q 25 496 25 498 q 25 504 30 506 l 132 567 q 134 568 134 570 q 134 572 132 573 l 30 634 q 26 636 26 640 q 25 644 27 648 l 39 672 q 44 682 53 676 l 153 614 q 158 612 158 617 l 157 736 q 157 746 167 746 l 193 746 q 203 746 203 736 l 203 617 q 203 615 205 614 q 207 613 208 614 l 307 676 q 311 678 313 678 q 318 678 321 672 l 334 648 q 335 646 335 643 q 335 637 330 634 l 229 573 q 228 572 228 570 q 228 568 229 567 l 330 506 q 339 500 334 492 l 321 468 q 319 464 315 463 q 311 462 307 464 l 208 527 q 207 528 205 527 q 203 526 203 524 l 203 404 q 203 394 193 394 l 167 394 q 157 394 157 404 z"},"Y":{"x_min":0,"x_max":424,"ha":424,"o":"m 177 11 l 177 310 q 177 314 176 315 l 37 688 l 36 692 q 36 700 45 700 l 99 700 q 108 700 111 692 l 209 399 q 210 397 212 397 q 214 397 215 399 l 313 692 q 316 700 325 700 l 379 700 q 384 700 386 696 q 389 693 387 688 l 249 315 q 248 314 248 310 l 248 11 q 248 1 238 1 l 187 1 q 177 1 177 11 z"},"c":{"x_min":0,"x_max":402,"ha":402,"o":"m 50 145 l 50 361 q 50 429 93 472 q 136 514 206 514 q 253 514 289 495 q 325 476 344 444 q 364 413 364 375 l 364 365 q 364 355 354 355 l 303 353 q 293 353 293 363 l 293 370 q 293 403 268 428 q 244 452 206 452 q 168 452 144 426 q 121 399 121 356 l 121 150 q 121 107 144 80 q 168 54 206 54 q 244 54 268 78 q 293 103 293 136 l 293 143 q 293 153 303 153 l 354 152 q 364 152 364 142 l 364 131 q 364 71 320 32 q 277 -8 206 -8 q 135 -8 92 34 q 50 76 50 145 z"},"!":{"x_min":0,"x_max":251,"ha":251,"o":"m 97 238 l 91 690 q 91 700 101 700 l 152 700 q 162 700 162 690 l 155 238 q 155 228 145 228 l 107 228 q 97 228 97 238 z m 70 59 q 70 84 86 100 q 101 115 126 115 q 150 115 166 100 q 182 84 182 59 q 182 35 166 20 q 150 4 126 4 q 101 4 86 20 q 70 35 70 59 z"},"/":{"x_min":0,"x_max":334,"ha":334,"o":"m 25 11 l 206 691 q 208 700 217 700 l 267 700 q 272 700 274 697 q 277 694 276 689 l 95 9 q 93 0 84 0 l 34 0 q 29 0 26 3 q 24 6 25 11 z"},"[":{"x_min":0,"x_max":303,"ha":303,"o":"m 26 -111 l 26 764 q 26 774 36 774 l 191 774 q 201 774 201 764 l 201 722 q 201 712 191 712 l 101 712 q 97 712 97 708 l 97 -55 q 97 -59 101 -59 l 192 -59 q 202 -59 202 -69 l 202 -111 q 202 -121 192 -121 l 36 -121 q 26 -121 26 -111 z"},"6":{"x_min":0,"x_max":410,"ha":410,"o":"m 373 213 q 373 170 369 139 q 361 68 320 30 q 280 -8 213 -8 q 151 -8 111 27 q 71 62 61 130 q 54 162 54 209 l 53 537 q 53 615 97 662 q 141 708 213 708 q 278 708 320 661 q 363 614 363 537 l 363 521 q 363 511 353 511 l 302 511 q 292 511 292 521 l 292 535 q 292 583 269 614 q 246 644 213 644 q 173 644 149 614 q 125 584 125 535 l 125 401 q 125 399 126 398 q 128 398 130 400 q 144 420 166 430 q 188 441 215 441 q 276 441 315 404 q 354 367 365 302 q 373 262 373 213 z m 302 218 q 302 264 293 304 q 285 341 264 360 q 244 379 213 379 q 148 379 131 300 q 125 268 125 218 q 125 171 130 140 q 147 54 213 54 q 247 54 268 77 q 290 100 297 145 q 302 185 302 218 z"},"r":{"x_min":0,"x_max":292,"ha":292,"o":"m 275 500 q 282 496 280 487 l 268 435 q 267 426 256 429 q 244 435 226 435 q 218 435 214 434 q 178 432 155 396 q 132 361 132 310 l 132 10 q 132 0 122 0 l 71 0 q 61 0 61 10 l 61 496 q 61 506 71 506 l 122 506 q 132 506 132 496 l 132 436 q 132 433 134 433 q 135 433 137 435 q 166 511 232 511 q 257 511 275 500 z"},"2":{"x_min":0,"x_max":402,"ha":402,"o":"m 129 62 l 364 62 q 374 62 374 52 l 374 10 q 374 0 364 0 l 50 0 q 40 0 40 10 l 40 55 q 40 63 44 68 q 75 117 79 124 q 167 263 218 350 q 282 460 282 532 q 282 584 258 615 q 234 646 195 646 q 157 646 134 616 q 110 585 111 535 l 111 497 q 111 487 101 487 l 49 487 q 39 487 39 497 l 39 537 q 41 614 84 661 q 128 708 198 708 q 268 708 311 660 q 354 611 354 532 q 354 438 283 320 q 247 259 182 156 l 126 67 q 125 65 126 64 q 127 62 129 62 z"},"{":{"x_min":0,"x_max":273,"ha":273,"o":"m 86 -7 l 86 210 q 86 251 74 273 q 61 295 35 300 q 26 302 26 310 l 26 350 q 26 359 35 360 q 61 365 74 386 q 86 408 86 449 l 86 661 q 86 719 110 746 q 135 774 186 774 l 237 774 q 247 774 247 764 l 247 722 q 247 712 237 712 l 211 712 q 157 712 157 638 l 157 444 q 157 399 145 372 q 133 345 109 332 q 107 331 107 330 q 107 329 109 328 q 133 314 145 287 q 157 260 157 215 l 157 16 q 157 -59 211 -59 l 237 -59 q 247 -59 247 -69 l 247 -111 q 247 -121 237 -121 l 186 -121 q 135 -121 110 -93 q 86 -65 86 -7 z"},"9":{"x_min":0,"x_max":403,"ha":403,"o":"m 350 163 q 350 85 306 38 q 262 -8 190 -8 q 125 -8 82 39 q 40 86 40 163 l 40 179 q 40 189 50 189 l 101 189 q 111 189 111 179 l 111 165 q 111 117 134 86 q 157 56 190 56 q 230 56 254 86 q 278 116 278 165 l 278 299 q 278 301 276 302 q 275 302 273 300 q 259 280 237 270 q 215 259 188 259 q 127 259 88 296 q 49 333 38 398 q 30 438 30 487 q 30 530 34 561 q 42 632 82 670 q 123 708 190 708 q 252 708 292 673 q 332 638 342 570 q 349 538 349 491 z m 272 400 q 278 432 278 482 q 278 529 273 560 q 256 646 190 646 q 156 646 134 623 q 113 600 106 555 q 101 515 101 482 q 101 437 110 396 q 118 359 138 340 q 159 321 190 321 q 255 321 272 400 z"}," ":{"x_min":0,"x_max":200,"ha":200,"o":""},"I":{"x_min":0,"x_max":215,"ha":215,"o":"m 72 10 l 72 690 q 72 700 82 700 l 133 700 q 143 700 143 690 l 143 10 q 143 0 133 0 l 82 0 q 72 0 72 10 z"},"H":{"x_min":0,"x_max":472,"ha":472,"o":"m 339 700 l 390 700 q 400 700 400 690 l 400 10 q 400 0 390 0 l 339 0 q 329 0 329 10 l 329 315 q 329 319 325 319 l 147 319 q 143 319 143 315 l 143 10 q 143 0 133 0 l 82 0 q 72 0 72 10 l 72 690 q 72 700 82 700 l 133 700 q 143 700 143 690 l 143 386 q 143 382 147 382 l 325 382 q 329 382 329 386 l 329 690 q 329 700 339 700 z"},"4":{"x_min":0,"x_max":415,"ha":415,"o":"m 393 246 l 393 202 q 393 192 383 192 l 352 192 q 348 192 348 188 l 348 10 q 348 0 338 0 l 287 0 q 277 0 277 10 l 277 188 q 277 192 273 192 l 32 192 q 22 192 22 202 l 22 240 q 22 244 24 252 l 174 692 q 177 700 186 700 l 241 700 q 252 700 249 689 l 105 261 q 104 259 105 258 q 106 256 108 256 l 273 256 q 277 256 277 260 l 277 413 q 277 423 287 423 l 338 423 q 348 423 348 413 l 348 260 q 348 256 352 256 l 383 256 q 393 256 393 246 z"},"~":{"x_min":0,"x_max":461,"ha":461,"o":"m 223 266 q 200 279 186 286 q 171 292 153 292 q 107 292 81 251 q 76 241 67 247 l 40 263 q 32 268 35 277 q 51 312 80 334 q 110 355 147 355 q 171 355 190 348 q 208 341 228 328 q 255 311 274 303 q 293 295 317 295 q 337 295 350 305 q 364 315 378 335 q 384 343 392 338 l 421 319 q 429 314 424 306 q 380 232 320 232 q 292 232 272 240 q 252 249 223 266 z"},"D":{"x_min":0,"x_max":465,"ha":465,"o":"m 72 10 l 72 690 q 72 700 82 700 l 236 700 q 313 700 359 650 q 405 599 405 514 l 405 186 q 405 101 359 50 q 313 0 236 0 l 82 0 q 72 0 72 10 z m 147 62 l 235 63 q 279 63 306 97 q 332 131 333 189 l 333 511 q 333 570 307 604 q 281 638 235 638 l 147 638 q 143 638 143 634 l 143 66 q 143 62 147 62 z"},"^":{"x_min":0,"x_max":396,"ha":396,"o":"m 36 318 l 163 692 q 166 700 175 700 l 220 700 q 229 700 232 692 l 360 318 l 361 314 q 361 307 352 307 l 311 307 q 302 307 299 315 l 201 618 q 200 620 198 620 q 196 620 195 618 l 97 315 q 94 307 85 307 l 44 307 q 33 307 36 318 z"},"0":{"x_min":0,"x_max":444,"ha":444,"o":"m 52 169 l 52 531 q 52 611 98 660 q 145 710 221 710 q 298 710 345 660 q 392 611 392 531 l 392 169 q 392 89 345 40 q 298 -10 221 -10 q 145 -10 98 40 q 52 89 52 169 z m 321 165 l 321 535 q 321 586 294 617 q 267 648 221 648 q 177 648 150 617 q 123 586 123 535 l 123 165 q 123 114 150 83 q 177 52 221 52 q 267 52 294 83 q 321 114 321 165 z"},"F":{"x_min":0,"x_max":404,"ha":404,"o":"m 377 638 l 147 638 q 143 638 143 634 l 143 386 q 143 382 147 382 l 292 382 q 302 382 302 372 l 302 329 q 302 319 292 319 l 147 319 q 143 319 143 315 l 143 10 q 143 0 133 0 l 82 0 q 72 0 72 10 l 72 690 q 72 700 82 700 l 377 700 q 387 700 387 690 l 387 648 q 387 638 377 638 z"},"`":{"x_min":0,"x_max":180,"ha":180,"o":""},"k":{"x_min":0,"x_max":405,"ha":405,"o":"m 61 10 l 61 690 q 61 700 71 700 l 122 700 q 132 700 132 690 l 132 288 q 132 286 134 285 q 136 284 137 286 l 287 500 q 291 506 299 506 l 351 506 q 357 506 359 502 q 361 499 357 494 l 258 352 q 255 349 257 346 l 375 11 l 376 7 q 376 0 367 0 l 314 0 q 305 0 302 8 l 213 286 q 212 292 207 287 l 134 183 q 132 181 132 178 l 132 10 q 132 0 122 0 l 71 0 q 61 0 61 10 z"},"u":{"x_min":0,"x_max":424,"ha":424,"o":"m 302 506 l 353 506 q 363 506 363 496 l 363 10 q 363 0 353 0 l 302 0 q 292 0 292 10 l 292 44 q 292 47 290 47 q 289 47 287 45 q 256 -7 187 -7 q 127 -7 92 30 q 56 66 56 140 l 56 496 q 56 506 66 506 l 117 506 q 127 506 127 496 l 127 156 q 127 106 148 80 q 168 55 207 55 q 247 55 270 84 q 292 113 292 163 l 292 496 q 292 506 302 506 z"},"]":{"x_min":0,"x_max":303,"ha":303,"o":"m 267 -121 l 110 -121 q 100 -121 100 -111 l 100 -69 q 100 -59 110 -59 l 202 -59 q 206 -59 206 -55 l 206 708 q 206 712 202 712 l 111 712 q 101 712 101 722 l 101 764 q 101 774 111 774 l 267 774 q 277 774 277 764 l 277 -111 q 277 -121 267 -121 z"},"U":{"x_min":0,"x_max":476,"ha":476,"o":"m 66 185 l 66 690 q 66 700 76 700 l 127 700 q 137 700 137 690 l 137 177 q 137 122 164 88 q 192 54 237 54 q 283 54 311 88 q 339 122 339 177 l 339 690 q 339 700 349 700 l 400 700 q 410 700 410 690 l 410 185 q 410 98 362 45 q 315 -8 237 -8 q 160 -8 113 45 q 66 98 66 185 z"},"o":{"x_min":0,"x_max":415,"ha":415,"o":"m 50 145 l 50 360 q 50 428 93 471 q 136 514 207 514 q 279 514 322 471 q 365 428 365 360 l 365 145 q 365 76 322 34 q 279 -8 207 -8 q 135 -8 92 34 q 50 76 50 145 z m 294 150 l 294 356 q 294 399 270 426 q 245 452 207 452 q 169 452 145 426 q 121 399 121 356 l 121 150 q 121 107 145 81 q 169 55 207 55 q 245 55 270 81 q 294 107 294 150 z"},"N":{"x_min":0,"x_max":493,"ha":493,"o":"m 362 700 l 412 700 q 422 700 422 690 l 422 10 q 422 0 412 0 l 353 0 q 345 0 342 8 l 147 525 q 146 528 144 528 q 142 527 142 524 l 143 10 q 143 0 133 0 l 82 0 q 72 0 72 10 l 72 690 q 72 700 82 700 l 140 700 q 148 700 151 692 l 347 174 q 348 171 350 172 q 352 172 352 175 l 352 690 q 352 700 362 700 z"},"+":{"x_min":0,"x_max":442,"ha":442,"o":"m 410 336 l 410 301 q 410 291 400 291 l 253 291 q 249 291 249 287 l 249 140 q 249 130 239 130 l 203 130 q 193 130 193 140 l 193 287 q 193 291 189 291 l 42 291 q 32 291 32 301 l 32 336 q 32 346 42 346 l 189 346 q 193 346 193 350 l 193 497 q 193 507 203 507 l 239 507 q 249 507 249 497 l 249 350 q 249 346 253 346 l 400 346 q 410 346 410 336 z"},"G":{"x_min":0,"x_max":451,"ha":451,"o":"m 56 159 l 56 541 q 56 617 102 662 q 148 708 225 708 q 302 708 348 662 q 395 616 395 540 l 395 497 q 395 487 385 487 l 334 487 q 324 487 324 497 l 324 542 q 324 589 297 618 q 270 646 225 646 q 181 646 154 617 q 126 588 126 542 l 126 158 q 126 112 154 83 q 181 54 225 54 q 270 54 297 82 q 324 111 324 158 l 324 286 q 324 290 320 290 l 234 290 q 224 290 224 300 l 224 342 q 224 352 234 352 l 385 352 q 395 352 395 342 l 395 159 q 395 83 348 38 q 302 -8 225 -8 q 148 -8 102 38 q 56 83 56 159 z"},"q":{"x_min":0,"x_max":428,"ha":428,"o":"m 301 506 l 352 506 q 362 506 362 496 l 362 -184 q 362 -194 352 -194 l 301 -194 q 291 -194 291 -184 l 291 33 q 291 35 290 36 q 288 37 286 35 q 249 -8 190 -8 q 126 -8 88 34 q 50 75 50 145 l 50 361 q 50 429 88 472 q 126 514 190 514 q 248 514 286 472 q 288 470 290 471 q 291 472 291 474 l 291 496 q 291 506 301 506 z m 291 150 l 291 356 q 291 399 268 426 q 244 452 207 452 q 169 452 144 426 q 120 399 120 356 l 120 150 q 120 107 144 80 q 169 54 207 54 q 244 54 268 80 q 291 107 291 150 z"},"d":{"x_min":0,"x_max":423,"ha":423,"o":"m 301 700 l 352 700 q 362 700 362 690 l 362 10 q 362 0 352 0 l 301 0 q 291 0 291 10 l 291 32 q 291 34 290 35 q 288 36 286 34 q 248 -8 190 -8 q 126 -8 88 34 q 50 77 50 145 l 50 361 q 50 431 88 472 q 126 514 190 514 q 249 514 286 471 q 288 469 290 470 q 291 471 291 473 l 291 690 q 291 700 301 700 z m 291 149 l 291 356 q 291 399 268 426 q 244 452 207 452 q 169 452 144 426 q 120 399 120 356 l 120 149 q 120 107 144 80 q 169 54 207 54 q 244 54 268 80 q 291 107 291 149 z"},"1":{"x_min":0,"x_max":256,"ha":256,"o":"m 133 700 l 187 700 q 197 700 197 690 l 197 10 q 197 0 187 0 l 136 0 q 126 0 126 10 l 126 616 q 126 618 124 619 q 123 620 121 619 l 27 588 l 24 587 q 17 587 15 596 l 10 633 l 10 635 q 10 640 17 645 l 120 697 q 126 700 133 700 z"},"5":{"x_min":0,"x_max":409,"ha":409,"o":"m 372 213 q 372 168 366 130 q 356 63 316 28 q 277 -8 212 -8 q 147 -8 108 27 q 68 62 57 132 l 54 162 l 54 164 q 54 172 63 172 l 114 172 q 124 172 125 162 l 128 138 q 144 54 212 54 q 244 54 265 74 q 286 95 294 134 q 301 166 301 214 q 301 264 292 300 q 274 370 212 370 q 143 370 126 301 q 123 292 115 292 l 63 292 q 53 292 53 302 l 53 690 q 53 700 63 700 l 346 700 q 356 700 356 690 l 356 648 q 356 638 346 638 l 128 638 q 124 638 124 634 l 123 386 q 123 384 124 383 q 126 382 128 384 q 144 408 170 420 q 197 433 230 433 q 283 433 317 401 q 351 369 362 309 q 372 272 372 213 z"}}}
